<svg xmlns="http://www.w3.org/2000/svg" width="521.07" height="282.47" viewBox="0 0 521.07 282.47">
  <path id="Caminho_1" data-name="Caminho 1" d="M43.12,1.54A39.353,39.353,0,0,1,24.2-3.19,37.209,37.209,0,0,1,10.175-16.115,32.976,32.976,0,0,1,4.95-34.21a36.279,36.279,0,0,1,5.5-19.525A39.858,39.858,0,0,1,25.3-67.76a40.94,40.94,0,0,1,20.13-5.17,83.711,83.711,0,0,1,11.825,1.265Q65.23-70.4,67.43-69.3a1.427,1.427,0,0,1,.715.5,2.682,2.682,0,0,1,.275.825,111.9,111.9,0,0,1,1.1,11.66,2.5,2.5,0,0,1-.495,1.54,1.427,1.427,0,0,1-1.155.66,1.784,1.784,0,0,1-1.54-.77,7.784,7.784,0,0,1-.99-2.2,18.5,18.5,0,0,0-3.41-5.83q-1.54-1.98-6.1-3.905A29.4,29.4,0,0,0,44.44-68.75a25.246,25.246,0,0,0-14.8,4.565A30.513,30.513,0,0,0,19.47-51.975,37.6,37.6,0,0,0,15.84-35.64,36.358,36.358,0,0,0,19.91-18.1,29.619,29.619,0,0,0,30.58-6.545,26.638,26.638,0,0,0,44.66-2.53,24.188,24.188,0,0,0,53.35-3.8,13.973,13.973,0,0,0,58.08-6.6a11.323,11.323,0,0,0,2.365-3.63,12.249,12.249,0,0,0,.935-4.84q0-1.98.11-3.08l.11-3.3q0-2.64-.55-3.3-1.21-1.65-4.84-2.53a26.336,26.336,0,0,0-5.94-.88,2.673,2.673,0,0,1-1.375-.55,1.578,1.578,0,0,1-.825-1.32,1.578,1.578,0,0,1,.825-1.32,2.673,2.673,0,0,1,1.375-.55q2.53,0,6.49.22,4.18.22,7.37.22,1.98,0,4.84-.22t4.95-.22a3.219,3.219,0,0,1,1.485.44,1.415,1.415,0,0,1,.825,1.32,1.639,1.639,0,0,1-.88,1.265,4.256,4.256,0,0,1-1.43.715,6.43,6.43,0,0,0-3.3,1.87,7.086,7.086,0,0,0-1.32,3.52,59.945,59.945,0,0,0-.55,8.25v2.97a2.12,2.12,0,0,0,.275,1.045q.275.5.385.715a7.049,7.049,0,0,0,.825.935q.6.605.605.935,0,1.87-1.54,2.09a11.6,11.6,0,0,0-2.97,1.32A90.607,90.607,0,0,1,55.44-.22,40.315,40.315,0,0,1,43.12,1.54Zm107.14.77A25.971,25.971,0,0,1,141.515.99a14.829,14.829,0,0,1-6.435-4.62q-5.06-6.27-8.36-10.725T118.36-27.06a11.208,11.208,0,0,0-4.73-4.29,26.406,26.406,0,0,0-8.69-2.31h-.22q-1.43,0-1.43,2.2V-12.1q0,8.14,7.37,9.46a10.7,10.7,0,0,1,2.75.77,1.342,1.342,0,0,1,.88,1.21q0,1.21-3.19,1.21a42.177,42.177,0,0,1-6.38-.44,26.878,26.878,0,0,0-4.4-.33q-1.98,0-4.015.165T93.39.11q-4.4.44-7.37.44-3.19,0-3.19-1.21a1.342,1.342,0,0,1,.88-1.21,10.7,10.7,0,0,1,2.75-.77q4.29-.77,6.16-2.585T94.49-11V-57.86a38.045,38.045,0,0,0-.385-6.545,4.1,4.1,0,0,0-1.76-2.805,11,11,0,0,0-4.565-1.21,5.228,5.228,0,0,1-2.7-.77,1.814,1.814,0,0,1-.935-1.43q0-1.21,3.19-1.21,4.73,0,6.16.11h4.62q1.65,0,4.95-.22,5.94-.33,7.7-.33,12.1,0,18.425,4.565T135.52-54.23q0,11.88-12.98,18.48a.508.508,0,0,0-.33.55,1.88,1.88,0,0,0,.33.88q6.93,10.45,11.165,16.06A87.647,87.647,0,0,0,144.87-6.38a12.787,12.787,0,0,0,5.39,2.97,32.2,32.2,0,0,0,7.26.66q1.65,0,1.65,1.21,0,2.09-2.915,2.97A20.631,20.631,0,0,1,150.26,2.31Zm-41.14-38.5a16.578,16.578,0,0,0,8.635-2.255,15.507,15.507,0,0,0,5.83-5.995,16.542,16.542,0,0,0,2.035-8.03q0-7.81-3.3-12.155T109.45-68.97q-3.41,0-4.565,2.145T103.51-58.74q-.22,7.48-.22,18.7,0,2.53,1.32,3.19A10.952,10.952,0,0,0,109.12-36.19ZM165.88.55q-3.19,0-3.19-1.21a1.342,1.342,0,0,1,.88-1.21,10.7,10.7,0,0,1,2.75-.77q4.29-.77,6.215-2.585t1.925-5.665v-49.5q0-3.85-1.6-5.555T167.09-68.42q-3.63-.66-3.63-2.2,0-1.21,3.19-1.21,4.18,0,10.12.22l9.35.11,15.07-.11,9.35-.22q1.87,0,1.98.99.22.88.935,4.84a38.035,38.035,0,0,1,.715,6.49q0,1.65-1.54,1.65a1.073,1.073,0,0,1-.77-.22,2.388,2.388,0,0,1-.44-.88q-.22-.55-.88-2.86A7.545,7.545,0,0,0,209-65.01a9.348,9.348,0,0,0-7.37-2.97H187.22a4.5,4.5,0,0,0-2.53,1.045,3.023,3.023,0,0,0-1.43,2.475v23.32a2.554,2.554,0,0,0,.6,1.705,1.774,1.774,0,0,0,1.375.715h10.89q3.08,0,4.29-1.1a9.246,9.246,0,0,0,2.09-4.29q.66-2.42,1.98-2.42a1.389,1.389,0,0,1,.935.5,1.713,1.713,0,0,1,.5,1.265l-.11,2.86-.22,4.84.11,5.83.11,2.64q0,1.87-.99,1.87-1.65,0-2.53-3.52a8.133,8.133,0,0,0-1.815-3.8A4.387,4.387,0,0,0,197.23-35.2H187a5.571,5.571,0,0,0-2.915.55,2.619,2.619,0,0,0-.825,2.31v21.12q0,4.07,1.705,5.72t5.555,1.65h8.14a33.71,33.71,0,0,0,5.995-.44,12.038,12.038,0,0,0,4.015-1.43,11.838,11.838,0,0,0,3.025-3.025,50.544,50.544,0,0,0,3.245-5.445q.77-1.43,1.54-1.43,1.43,0,1.43,1.54a30.71,30.71,0,0,1-1.21,6,47.241,47.241,0,0,1-2.2,6.765q-.11.22-.33.77a2.449,2.449,0,0,1-.495.825.967.967,0,0,1-.715.275q-2.2,0-19.36-.33-7.59-.33-15.07-.33a46.245,46.245,0,0,0-5.72.33Q167.2.55,165.88.55Zm62.04,0q-3.19,0-3.19-1.21a1.342,1.342,0,0,1,.88-1.21,10.7,10.7,0,0,1,2.75-.77q4.29-.77,6.215-2.585T236.5-10.89v-49.5q0-3.85-1.6-5.555T229.13-68.42q-3.63-.66-3.63-2.2,0-1.21,3.19-1.21,4.18,0,10.12.22l9.35.11,15.07-.11,9.35-.22q1.87,0,1.98.99.22.88.935,4.84a38.034,38.034,0,0,1,.715,6.49q0,1.65-1.54,1.65a1.074,1.074,0,0,1-.77-.22,2.388,2.388,0,0,1-.44-.88q-.22-.55-.88-2.86a7.545,7.545,0,0,0-1.54-3.19,9.348,9.348,0,0,0-7.37-2.97H249.26a4.5,4.5,0,0,0-2.53,1.045,3.023,3.023,0,0,0-1.43,2.475v23.32a2.554,2.554,0,0,0,.6,1.705,1.774,1.774,0,0,0,1.375.715h10.89q3.08,0,4.29-1.1a9.246,9.246,0,0,0,2.09-4.29q.66-2.42,1.98-2.42a1.389,1.389,0,0,1,.935.5,1.713,1.713,0,0,1,.495,1.265l-.11,2.86-.22,4.84.11,5.83.11,2.64q0,1.87-.99,1.87-1.65,0-2.53-3.52a8.133,8.133,0,0,0-1.815-3.8A4.387,4.387,0,0,0,259.27-35.2H249.04a5.571,5.571,0,0,0-2.915.55,2.619,2.619,0,0,0-.825,2.31v21.12q0,4.07,1.705,5.72t5.555,1.65h8.14a33.71,33.71,0,0,0,5.995-.44,12.038,12.038,0,0,0,4.015-1.43,11.838,11.838,0,0,0,3.025-3.025,50.546,50.546,0,0,0,3.245-5.445q.77-1.43,1.54-1.43,1.43,0,1.43,1.54a30.71,30.71,0,0,1-1.21,6,47.239,47.239,0,0,1-2.2,6.765q-.11.22-.33.77a2.449,2.449,0,0,1-.495.825A.967.967,0,0,1,275,.55q-2.2,0-19.36-.33-7.59-.33-15.07-.33a46.245,46.245,0,0,0-5.72.33Q229.24.55,227.92.55ZM356.18,1.87q-1.32,0-4.235-1.87a19.471,19.471,0,0,1-5.225-5.06q-.88-1.32-12.815-15.4T316.58-41.03q-8.8-10.34-10.34-12.21Q304.81-55,303.93-55q-.55,0-.77.715a5.411,5.411,0,0,0-.22,1.6q-.55,27.17-.55,41.25,0,7.48,7.04,8.8a10.7,10.7,0,0,1,2.75.77,1.342,1.342,0,0,1,.88,1.21q0,1.21-3.19,1.21A45.128,45.128,0,0,1,303.6.22Q301.4,0,299.53,0q-1.65,0-3.85.22-4.29.33-6.16.33-3.19,0-3.19-1.21a1.279,1.279,0,0,1,.825-1.1,15.236,15.236,0,0,1,2.805-.99q5.61-1.54,6.38-9.02.77-7.15,1.375-19.305t.6-24.7q0-5.39-2.7-8.03a20.6,20.6,0,0,0-8.195-4.4,11.673,11.673,0,0,1-2.2-1.045q-1.21-.715-1.21-1.6a1.206,1.206,0,0,1,.825-1.21,4.551,4.551,0,0,1,1.705-.33l7.7.33q5.28.22,9.24.22a2.19,2.19,0,0,1,1.375.385,7.26,7.26,0,0,1,1.265,1.485q1.32,1.87,18.59,22.88t24.64,29.92q1.87,2.2,2.75,2.2.99,0,1.1-2.31.22-8.36.22-44.77a5.666,5.666,0,0,0-2.255-3.85,8.619,8.619,0,0,0-4.125-2.2q-4.95-.88-4.95-2.2,0-.55,1.43-.88a13.678,13.678,0,0,1,3.08-.33h6.27l5.5-.11q3.52-.22,7.15-.22,3.19,0,3.19,1.21,0,1.54-3.63,2.2-4.07.77-5.39,1.98a5.82,5.82,0,0,0-1.54,3.96q-.22,3.96-.22,50.93a75.773,75.773,0,0,0,.44,8.36l.11,2.31Q358.49,1.87,356.18,1.87ZM7.26,104.55a5.831,5.831,0,0,1-2.31-.385q-.88-.385-.88-1.045a1.166,1.166,0,0,1,.77-1.045,10.866,10.866,0,0,1,2.75-.715q4.07-.77,5.39-2.475T14.3,93.11V43.39a19.767,19.767,0,0,0-.33-4.235A3.831,3.831,0,0,0,12.43,36.9a9.51,9.51,0,0,0-3.96-1.32,10.7,10.7,0,0,1-2.75-.77,1.342,1.342,0,0,1-.88-1.21q0-1.43,3.19-1.43,3.3,0,6.6.22l4.73.11,4.95-.11q3.52-.22,6.71-.22t3.19,1.43a1.342,1.342,0,0,1-.88,1.21,10.7,10.7,0,0,1-2.75.77q-4.07.77-5.775,2.64A7.389,7.389,0,0,0,23.1,43.39V65.06q0,.99,1.54.99H65.45q.77,0,.77-1.32V43.28a7.59,7.59,0,0,0-1.65-5.115q-1.65-1.925-5.61-2.585a10.7,10.7,0,0,1-2.75-.77,1.342,1.342,0,0,1-.88-1.21q0-.66.88-1.045a5.831,5.831,0,0,1,2.31-.385q3.08,0,7.04.22l5.72.11,3.85-.11q2.86-.22,6.16-.22,3.19,0,3.19,1.43a1.342,1.342,0,0,1-.88,1.21,10.7,10.7,0,0,1-2.75.77q-3.74.66-4.785,2.365A10.516,10.516,0,0,0,75.02,43.28V93q0,4.29,1.1,6t5.06,2.365a10.866,10.866,0,0,1,2.75.715,1.166,1.166,0,0,1,.77,1.045q0,.66-.88,1.045a5.831,5.831,0,0,1-2.31.385,53.054,53.054,0,0,1-6.6-.33q-2.86-.22-4.84-.22-2.2,0-5.06.22a55.866,55.866,0,0,1-6.71.33,5.831,5.831,0,0,1-2.31-.385q-.88-.385-.88-1.045a1.166,1.166,0,0,1,.77-1.045,10.866,10.866,0,0,1,2.75-.715q7.59-1.43,7.59-8.03v-22a2.437,2.437,0,0,0-.11-.77.431.431,0,0,0-.44-.33H23.65a.431.431,0,0,0-.44.33,2.861,2.861,0,0,0-.11.88v20.9a8.038,8.038,0,0,0,2.475,5.885A11.409,11.409,0,0,0,31.9,101.36a10.866,10.866,0,0,1,2.75.715,1.166,1.166,0,0,1,.77,1.045q0,.66-.88,1.045a5.831,5.831,0,0,1-2.31.385,64.823,64.823,0,0,1-7.04-.33q-3.52-.22-5.83-.22-2.2,0-5.28.22A57.028,57.028,0,0,1,7.26,104.55Zm123.31.99a37.362,37.362,0,0,1-18.1-4.565A34.922,34.922,0,0,1,99.055,88.16,35.541,35.541,0,0,1,94.05,69.35a41.722,41.722,0,0,1,4.4-18.92,34.87,34.87,0,0,1,12.87-14.135q8.47-5.335,20.24-5.335a37.362,37.362,0,0,1,18.1,4.565,34.922,34.922,0,0,1,13.42,12.815,35.541,35.541,0,0,1,5.005,18.81,41.722,41.722,0,0,1-4.4,18.92,34.87,34.87,0,0,1-12.87,14.135Q142.34,105.54,130.57,105.54Zm1.65-4.4q12.32,0,18.81-7.645t6.49-20.955a52.435,52.435,0,0,0-3.19-18.81,30.06,30.06,0,0,0-9.4-13.255,23.692,23.692,0,0,0-15.125-4.9q-12.21,0-18.7,7.535T104.61,63.85a54.179,54.179,0,0,0,3.135,18.92,30,30,0,0,0,9.35,13.42A23.518,23.518,0,0,0,132.22,101.14Zm110.88,5.17a25.971,25.971,0,0,1-8.745-1.32,14.829,14.829,0,0,1-6.435-4.62q-5.06-6.27-8.36-10.725t-8.36-12.7a11.208,11.208,0,0,0-4.73-4.29,26.406,26.406,0,0,0-8.69-2.31h-.22q-1.43,0-1.43,2.2V91.9q0,8.14,7.37,9.46a10.7,10.7,0,0,1,2.75.77,1.342,1.342,0,0,1,.88,1.21q0,1.21-3.19,1.21a42.177,42.177,0,0,1-6.38-.44,26.878,26.878,0,0,0-4.4-.33q-1.98,0-4.015.165t-2.915.165q-4.4.44-7.37.44-3.19,0-3.19-1.21a1.342,1.342,0,0,1,.88-1.21,10.7,10.7,0,0,1,2.75-.77q4.29-.77,6.16-2.585T187.33,93V46.14a38.045,38.045,0,0,0-.385-6.545,4.1,4.1,0,0,0-1.76-2.805,11,11,0,0,0-4.565-1.21,5.228,5.228,0,0,1-2.695-.77,1.814,1.814,0,0,1-.935-1.43q0-1.21,3.19-1.21,4.73,0,6.16.11h4.62q1.65,0,4.95-.22,5.94-.33,7.7-.33,12.1,0,18.425,4.565T228.36,49.77q0,11.88-12.98,18.48a.508.508,0,0,0-.33.55,1.88,1.88,0,0,0,.33.88q6.93,10.45,11.165,16.06A87.647,87.647,0,0,0,237.71,97.62a12.787,12.787,0,0,0,5.39,2.97,32.2,32.2,0,0,0,7.26.66q1.65,0,1.65,1.21,0,2.09-2.915,2.97A20.631,20.631,0,0,1,243.1,106.31Zm-41.14-38.5a16.578,16.578,0,0,0,8.635-2.255,15.507,15.507,0,0,0,5.83-5.995,16.542,16.542,0,0,0,2.035-8.03q0-7.81-3.3-12.155T202.29,35.03q-3.41,0-4.565,2.145T196.35,45.26q-.22,7.48-.22,18.7,0,2.53,1.32,3.19A10.952,10.952,0,0,0,201.96,67.81Zm54.78,36.74q-3.19,0-3.19-1.21a1.342,1.342,0,0,1,.88-1.21,10.7,10.7,0,0,1,2.75-.77,13.39,13.39,0,0,0,6.49-2.585q2.09-1.815,2.09-5.555V43.5q0-3.85-1.6-5.5t-5.775-2.42q-3.63-.66-3.63-2.2,0-1.21,3.19-1.21,3.08,0,7.04.22l5.83.11,5.28-.11q3.52-.22,6.71-.22T286,33.38q0,1.54-3.63,2.2-4.29.77-6.05,2.475T274.56,43.5V93.22q0,3.74,2.145,5.555a13.781,13.781,0,0,0,6.545,2.585,10.7,10.7,0,0,1,2.75.77,1.342,1.342,0,0,1,.88,1.21q0,1.21-3.19,1.21a64.823,64.823,0,0,1-7.04-.33q-3.52-.22-5.83-.22-2.75,0-6.71.22Q260.81,104.55,256.74,104.55Zm90.75,0q-7.04,0-18.7-.22l-14.52-.11-13.09.11h-8.47q-.44,0-.605-.66a4.623,4.623,0,0,1-.165-.88q0-.77,2.09-4.015t4.29-6.215q1.76-2.53,6.93-9.46,10.23-13.97,16.775-23.155T336.6,38.77a2.268,2.268,0,0,0,.44-.88q0-.77-2.09-.88-7.92-.22-16.06-.22-8.47,0-11.22.22a14.582,14.582,0,0,0-6.27,2.365,10.953,10.953,0,0,0-4.51,5.775,15.92,15.92,0,0,1-1.32,2.53,2.024,2.024,0,0,1-1.76.99q-.99,0-.99-1.21a10.191,10.191,0,0,1,.77-2.97,52.807,52.807,0,0,0,2.97-12.98q.11-1.87,1.65-1.87a5.149,5.149,0,0,1,1.54.605l1.87.935a25.7,25.7,0,0,0,4.125,1.155,25.326,25.326,0,0,0,5.335.605h13.86q13.2,0,25.41-.33.55,0,1.045.77t.165,1.21l-6.71,8.91q-13.64,18.48-20.735,28.435T307.67,96.3a2.188,2.188,0,0,0-.33,1.32,2.308,2.308,0,0,0,.33,1.21,1.309,1.309,0,0,0,.88.66,121.857,121.857,0,0,0,12.43.55q6.93,0,15.51-.55a13.83,13.83,0,0,0,8.14-3.355,21.672,21.672,0,0,0,5.5-8.635,6.058,6.058,0,0,1,.99-1.54,1.887,1.887,0,0,1,1.43-.77q.99,0,.99,1.43a63.54,63.54,0,0,1-1.6,7.59,56.5,56.5,0,0,1-2.475,8.47,5.887,5.887,0,0,1-.825,1.43A1.453,1.453,0,0,1,347.49,104.55Zm49.17.99a37.362,37.362,0,0,1-18.1-4.565,34.922,34.922,0,0,1-13.42-12.815,35.541,35.541,0,0,1-5-18.81,41.722,41.722,0,0,1,4.4-18.92,34.869,34.869,0,0,1,12.87-14.135q8.47-5.335,20.24-5.335a37.362,37.362,0,0,1,18.1,4.565,34.922,34.922,0,0,1,13.42,12.815,35.541,35.541,0,0,1,5.005,18.81,41.722,41.722,0,0,1-4.4,18.92,34.87,34.87,0,0,1-12.87,14.135Q408.43,105.54,396.66,105.54Zm1.65-4.4q12.32,0,18.81-7.645t6.49-20.955a52.435,52.435,0,0,0-3.19-18.81,30.06,30.06,0,0,0-9.4-13.255,23.692,23.692,0,0,0-15.125-4.9q-12.21,0-18.7,7.535T370.7,63.85a54.179,54.179,0,0,0,3.135,18.92,30,30,0,0,0,9.35,13.42A23.518,23.518,0,0,0,398.31,101.14Zm114.29,4.73q-1.32,0-4.235-1.87a19.471,19.471,0,0,1-5.225-5.06q-.88-1.32-12.815-15.4T473,62.97q-8.8-10.34-10.34-12.21Q461.23,49,460.35,49q-.55,0-.77.715a5.411,5.411,0,0,0-.22,1.6q-.55,27.17-.55,41.25,0,7.48,7.04,8.8a10.7,10.7,0,0,1,2.75.77,1.342,1.342,0,0,1,.88,1.21q0,1.21-3.19,1.21a45.128,45.128,0,0,1-6.27-.33q-2.2-.22-4.07-.22-1.65,0-3.85.22-4.29.33-6.16.33-3.19,0-3.19-1.21a1.279,1.279,0,0,1,.825-1.1,15.237,15.237,0,0,1,2.805-.99q5.61-1.54,6.38-9.02.77-7.15,1.375-19.3t.6-24.7q0-5.39-2.7-8.03a20.6,20.6,0,0,0-8.195-4.4,11.673,11.673,0,0,1-2.2-1.045q-1.21-.715-1.21-1.6a1.206,1.206,0,0,1,.825-1.21,4.551,4.551,0,0,1,1.705-.33l7.7.33q5.28.22,9.24.22a2.19,2.19,0,0,1,1.375.385,7.26,7.26,0,0,1,1.265,1.485q1.32,1.87,18.59,22.88t24.64,29.92q1.87,2.2,2.75,2.2.99,0,1.1-2.31.22-8.36.22-44.77a5.666,5.666,0,0,0-2.255-3.85,8.619,8.619,0,0,0-4.125-2.2q-4.95-.88-4.95-2.2,0-.55,1.43-.88a13.678,13.678,0,0,1,3.08-.33h6.27l5.5-.11q3.52-.22,7.15-.22,3.19,0,3.19,1.21,0,1.54-3.63,2.2-4.07.77-5.39,1.98a5.82,5.82,0,0,0-1.54,3.96q-.22,3.96-.22,50.93a75.773,75.773,0,0,0,.44,8.36l.11,2.31Q514.91,105.87,512.6,105.87ZM7.26,208.55a5.831,5.831,0,0,1-2.31-.385q-.88-.385-.88-1.045a1.166,1.166,0,0,1,.77-1.045,10.866,10.866,0,0,1,2.75-.715q4.07-.77,5.39-2.475t1.32-5.775V147.39a19.767,19.767,0,0,0-.33-4.235,3.831,3.831,0,0,0-1.54-2.255,9.511,9.511,0,0,0-3.96-1.32,10.7,10.7,0,0,1-2.75-.77,1.342,1.342,0,0,1-.88-1.21q0-1.43,3.19-1.43,3.3,0,6.6.22l4.73.11,4.95-.11q3.52-.22,6.71-.22t3.19,1.43a1.342,1.342,0,0,1-.88,1.21,10.7,10.7,0,0,1-2.75.77q-4.07.77-5.775,2.64a7.389,7.389,0,0,0-1.705,5.17v21.67q0,.99,1.54.99H65.45q.77,0,.77-1.32V147.28a7.59,7.59,0,0,0-1.65-5.115q-1.65-1.925-5.61-2.585a10.7,10.7,0,0,1-2.75-.77,1.342,1.342,0,0,1-.88-1.21q0-.66.88-1.045a5.831,5.831,0,0,1,2.31-.385q3.08,0,7.04.22l5.72.11,3.85-.11q2.86-.22,6.16-.22,3.19,0,3.19,1.43a1.342,1.342,0,0,1-.88,1.21,10.7,10.7,0,0,1-2.75.77q-3.74.66-4.785,2.365a10.517,10.517,0,0,0-1.045,5.335V197q0,4.29,1.1,5.995t5.06,2.365a10.866,10.866,0,0,1,2.75.715,1.166,1.166,0,0,1,.77,1.045q0,.66-.88,1.045a5.831,5.831,0,0,1-2.31.385,53.054,53.054,0,0,1-6.6-.33q-2.86-.22-4.84-.22-2.2,0-5.06.22a55.866,55.866,0,0,1-6.71.33,5.831,5.831,0,0,1-2.31-.385q-.88-.385-.88-1.045a1.166,1.166,0,0,1,.77-1.045,10.866,10.866,0,0,1,2.75-.715q7.59-1.43,7.59-8.03v-22a2.437,2.437,0,0,0-.11-.77.431.431,0,0,0-.44-.33H23.65a.431.431,0,0,0-.44.33,2.861,2.861,0,0,0-.11.88v20.9a8.038,8.038,0,0,0,2.475,5.885A11.409,11.409,0,0,0,31.9,205.36a10.866,10.866,0,0,1,2.75.715,1.166,1.166,0,0,1,.77,1.045q0,.66-.88,1.045a5.831,5.831,0,0,1-2.31.385,64.823,64.823,0,0,1-7.04-.33q-3.52-.22-5.83-.22-2.2,0-5.28.22A57.028,57.028,0,0,1,7.26,208.55Zm123.31.99a37.362,37.362,0,0,1-18.1-4.565,34.922,34.922,0,0,1-13.42-12.815,35.541,35.541,0,0,1-5.005-18.81,41.722,41.722,0,0,1,4.4-18.92,34.87,34.87,0,0,1,12.87-14.135q8.47-5.335,20.24-5.335a37.362,37.362,0,0,1,18.1,4.565,34.922,34.922,0,0,1,13.42,12.815,35.541,35.541,0,0,1,5.005,18.81,41.722,41.722,0,0,1-4.4,18.92,34.87,34.87,0,0,1-12.87,14.135Q142.34,209.54,130.57,209.54Zm1.65-4.4q12.32,0,18.81-7.645t6.49-20.955a52.435,52.435,0,0,0-3.19-18.81,30.06,30.06,0,0,0-9.4-13.255,23.692,23.692,0,0,0-15.125-4.9q-12.21,0-18.7,7.535t-6.49,20.735a54.179,54.179,0,0,0,3.135,18.92,30,30,0,0,0,9.35,13.42A23.518,23.518,0,0,0,132.22,205.14Zm62.15,3.41q-3.19,0-3.19-1.21a1.342,1.342,0,0,1,.88-1.21,10.7,10.7,0,0,1,2.75-.77,12.628,12.628,0,0,0,6.435-2.75,7.545,7.545,0,0,0,2.145-5.83V154.1a64.1,64.1,0,0,0-.495-9.955q-.5-2.585-1.815-2.805a17.261,17.261,0,0,0-3.355-.385q-1.925-.055-4.455-.055H188.1a13.371,13.371,0,0,0-5.39,1.1,7.118,7.118,0,0,0-3.63,3.19,11.49,11.49,0,0,1-2.035,2.75,3.754,3.754,0,0,1-2.475,1.43q-.77,0-.77-1.43a4.882,4.882,0,0,1,.55-2.2,27.307,27.307,0,0,0,2.2-5.445,57.834,57.834,0,0,0,1.21-6.1q.33-2.53,1.87-2.53.33,0,1.265,1.21a14.253,14.253,0,0,1,1.485,2.31,4.48,4.48,0,0,0,2.915,1.65,20.138,20.138,0,0,0,4.785.55H228.8q6.82,0,10.45-1.65a14.821,14.821,0,0,0,1.925-1.265,4.063,4.063,0,0,1,2.365-.935q.33,0,.55.825a6.589,6.589,0,0,1,.22,1.705q0,.44-.44,3.08l-.66,3.3a10.152,10.152,0,0,0-.44,3.19v1.32a6.1,6.1,0,0,1-.5,2.31q-.5,1.21-1.265,1.21t-1.21-1.045a18.271,18.271,0,0,1-.88-3.465,5.26,5.26,0,0,0-2.75-3.74q-2.31-1.32-7.37-1.32H217.69a7.675,7.675,0,0,0-3.795.66q-1.045.66-1.375,3.135a78.7,78.7,0,0,0-.33,8.855v43.23a7.442,7.442,0,0,0,2.2,5.83,12.984,12.984,0,0,0,6.49,2.75,10.7,10.7,0,0,1,2.75.77,1.342,1.342,0,0,1,.88,1.21q0,1.21-3.19,1.21a64.823,64.823,0,0,1-7.04-.33q-3.52-.22-5.83-.22-2.75,0-6.71.22Q198.44,208.55,194.37,208.55Zm57.42,0q-3.19,0-3.19-1.21a1.342,1.342,0,0,1,.88-1.21,10.7,10.7,0,0,1,2.75-.77q4.29-.77,6.215-2.585t1.925-5.665v-49.5q0-3.85-1.6-5.555T253,139.58q-3.63-.66-3.63-2.2,0-1.21,3.19-1.21,4.18,0,10.12.22l9.35.11,15.07-.11,9.35-.22q1.87,0,1.98.99.22.88.935,4.84a38.034,38.034,0,0,1,.715,6.49q0,1.65-1.54,1.65a1.074,1.074,0,0,1-.77-.22,2.388,2.388,0,0,1-.44-.88q-.22-.55-.88-2.86a7.545,7.545,0,0,0-1.54-3.19,9.348,9.348,0,0,0-7.37-2.97H273.13a4.5,4.5,0,0,0-2.53,1.045,3.023,3.023,0,0,0-1.43,2.475v23.32a2.554,2.554,0,0,0,.6,1.705,1.774,1.774,0,0,0,1.375.715h10.89q3.08,0,4.29-1.1a9.246,9.246,0,0,0,2.09-4.29q.66-2.42,1.98-2.42a1.389,1.389,0,0,1,.935.495,1.713,1.713,0,0,1,.495,1.265l-.11,2.86-.22,4.84.11,5.83.11,2.64q0,1.87-.99,1.87-1.65,0-2.53-3.52a8.133,8.133,0,0,0-1.815-3.795,4.387,4.387,0,0,0-3.245-1.155H272.91a5.571,5.571,0,0,0-2.915.55,2.619,2.619,0,0,0-.825,2.31v21.12q0,4.07,1.7,5.72t5.555,1.65h8.14a33.712,33.712,0,0,0,5.995-.44,12.038,12.038,0,0,0,4.015-1.43,11.838,11.838,0,0,0,3.025-3.025,50.548,50.548,0,0,0,3.245-5.445q.77-1.43,1.54-1.43,1.43,0,1.43,1.54a30.71,30.71,0,0,1-1.21,5.995,47.239,47.239,0,0,1-2.2,6.765q-.11.22-.33.77a2.449,2.449,0,0,1-.495.825.967.967,0,0,1-.715.275q-2.2,0-19.36-.33-7.59-.33-15.07-.33a46.244,46.244,0,0,0-5.72.33Q253.11,208.55,251.79,208.55Zm60.83,0a5.424,5.424,0,0,1-2.255-.385q-.825-.385-.825-.935,0-1.32,2.42-1.87a15.581,15.581,0,0,0,6.71-2.64,6.355,6.355,0,0,0,2.2-5.28V146.4a10.376,10.376,0,0,0-.55-3.9,3.384,3.384,0,0,0-1.815-1.815,21.743,21.743,0,0,0-4.345-1.1q-3.63-.66-3.63-2.2,0-1.21,3.19-1.21,3.3,0,6.82.22l5.5.11,6.6-.11q4.18-.22,7.26-.22,3.19,0,3.19,1.21,0,1.54-3.63,2.2a33.5,33.5,0,0,0-7.48,2.09,4,4,0,0,0-2.31,3.96v51.81q0,3.63,1.65,5.17t6.82,1.54h13.64a14.1,14.1,0,0,0,5.06-.88,11.126,11.126,0,0,0,3.52-1.98,19.178,19.178,0,0,0,3.245-3.355,33.1,33.1,0,0,0,2.475-4.455,15.4,15.4,0,0,1,1.1-2.2q.66-1.1,1.32-1.1a1.064,1.064,0,0,1,.99.605,2.824,2.824,0,0,1,.33,1.375l-.11.55q-1.43,5.28-2.035,8.085a56.422,56.422,0,0,0-.935,5.885q-.22,1.87-1.54,1.87-11.77,0-21.67-.33-11.22-.22-16.06-.22-3.41,0-8.36.22T312.62,208.55Z" transform="translate(-4.07 72.93)" fill="#fff"/>
</svg>
